<svg xmlns="http://www.w3.org/2000/svg" width="505" height="408" viewBox="0 0 505.00000000000006 408"><path fill="none" stroke="#000" d="M80 320h400M80 290h400M80 260h400M80 230h400M80 200h400M80 170h400M80 140h400M80 110h400M80 80h400M80 50h400M80 20h400" opacity=".3"/><path fill="none" stroke="#000" d="M140.465 326v-6" stroke-width="2"/><path fill="#63d9ea" d="M107.907 320V170h65.116v150"/><path fill="#63d9ea" stroke="#000" d="M233.488 326v-6" stroke-width="2"/><path fill="#63d9ea" d="M200.93 320v-60h65.117v60"/><path fill="#63d9ea" stroke="#000" d="M326.512 326v-6" stroke-width="2"/><path fill="#63d9ea" d="M293.953 320V20h65.117v300"/><path fill="#63d9ea" stroke="#000" d="M419.535 326v-6" stroke-width="2"/><path fill="#63d9ea" d="M386.977 320V140h65.116v180"/><path fill="#63d9ea" stroke="#000" d="M80 320h400M80 320V20" stroke-width="2"/></svg>
